<svg id="Capa_1" enable-background="new 0 0 512 512" height="512" viewBox="0 0 512 512" width="512" xmlns="http://www.w3.org/2000/svg"><g><path d="m512 121v391h-512v-391l33.3-31h452z" fill="#e6f2ff"/><path d="m512 121v391h-256v-422h229.3z" fill="#cdf"/><path d="m0 30h512v91h-512z" fill="#f66"/><path d="m256 30h256v91h-256z" fill="#e63950"/><path d="m106 0h60v60h-60z" fill="#465a61"/><path d="m346 0h60v60h-60z" fill="#293939"/><path d="m30 151h91v90h-91z" fill="#cdf"/><path d="m151 151h90v90h-90z" fill="#cdf"/><path d="m271 151h90v90h-90z" fill="#b3bfff"/><path d="m391 151h91v90h-91z" fill="#b3bfff"/><path d="m30 271h91v90h-91z" fill="#cdf"/><path d="m241 361h-90l35.368-65.368 54.632-24.632z" fill="#f66"/><path d="m271 271h90v90h-90z" fill="#b3bfff"/><path d="m391 271h91v90h-91z" fill="#b3bfff"/><path d="m30 391h91v91h-91z" fill="#cdf"/><path d="m151 391h90v91h-90z" fill="#cdf"/><path d="m271 391h90v91h-90z" fill="#b3bfff"/><path d="m391 391h91v91h-91z" fill="#b3bfff"/><path d="m151 361v-90h90z" fill="#cdf"/></g></svg>