<svg id="color" enable-background="new 0 0 24 24" height="512" viewBox="0 0 24 24" width="512" xmlns="http://www.w3.org/2000/svg"><path d="m23 8.04h-22c-.552 0-1 .448-1 1v11.96c0 1.654 1.346 3 3 3h18c1.654 0 3-1.346 3-3v-11.96c0-.552-.448-1-1-1z" fill="#f5f5f5"/><path d="m21 3h-18c-1.657 0-3 1.343-3 3v3.04h24v-3.04c0-1.657-1.343-3-3-3z" fill="#607d8b"/><path d="m19 0h-1c-.552 0-1 .448-1 1v4c0 .552.448 1 1 1h1c.552 0 1-.448 1-1v-4c0-.552-.448-1-1-1z" fill="#78909c"/><path d="m0 9.04v11.96c0 1.654 1.346 3 3 3h9v-14.96z" fill="#d5d5d5"/><path d="m12 3h-9c-1.657 0-3 1.343-3 3v3.04h12z" fill="#546d79"/><path d="m18.5 0h-.5c-.553 0-1 .448-1 1v4c0 .552.447 1 1 1h.5z" fill="#687d88"/><path d="m15 13.75h-1.5v-1.5c0-.138-.112-.25-.25-.25h-2.5c-.138 0-.25.112-.25.25v1.5h-1.5v-1.5c0-.965.785-1.75 1.75-1.75h2.5c.965 0 1.75.785 1.75 1.75z" fill="#607d8b"/><path d="m12 18.081-6-2.857v-.474c0-.965.785-1.75 1.75-1.75h8.5c.965 0 1.75.785 1.75 1.75v.474z" fill="#64b5f6"/><path d="m16.25 21h-8.5c-.965 0-1.75-.785-1.75-1.75v-4.25l6 2 6-2v4.25c0 .965-.785 1.75-1.75 1.75z" fill="#2196f3"/><path d="m12 10.5h-1.25c-.965 0-1.75.785-1.75 1.75v.75h1.5v-.75c0-.138.112-.25.25-.25h1.25z" fill="#546d79"/><path d="m12 13h-1.5-1.5-1.25c-.965 0-1.75.785-1.75 1.75v.474-.224l6 2z" fill="#579ed6"/><path d="m6 15v.224 4.026c0 .965.785 1.75 1.75 1.75h4.25v-4z" fill="#1d83d4"/><path d="m6 0h-1c-.552 0-1 .448-1 1v4c0 .552.448 1 1 1h1c.552 0 1-.448 1-1v-4c0-.552-.448-1-1-1z" fill="#78909c"/><path d="m5.5 0h-.5c-.553 0-1 .448-1 1v4c0 .552.447 1 1 1h.5z" fill="#687d88"/></svg>