<svg id="Capa_1" enable-background="new 0 0 512 512" height="512" viewBox="0 0 512 512" width="512" xmlns="http://www.w3.org/2000/svg"><g><path d="m178.5 100h-30v-35c0-12.131-9.869-22-22-22s-22 9.869-22 22v35h-30v-35c0-28.673 23.327-52 52-52s52 23.327 52 52z" fill="#495959"/><path d="m437.5 100h-30v-35c0-12.131-9.869-22-22-22s-22 9.869-22 22v35h-30v-35c0-28.673 23.327-52 52-52s52 23.327 52 52z" fill="#323c3c"/><path d="m0 91v382h256l27.256-205.444-27.256-176.556z" fill="#dceaec"/><path d="m256 91v382h88l168-78.287v-303.713z" fill="#c0d9dd"/><path d="m61 151h90v30h-90z" fill="#2fbfef"/><path d="m391 151h60v30h-60z" fill="#2681ff"/><path d="m61 230h30v30h-30z" fill="#2fbfef"/><path d="m121 230h30v30h-30z" fill="#2fbfef"/><path d="m181 230h30v30h-30z" fill="#2fbfef"/><path d="m61 296h30v30h-30z" fill="#2fbfef"/><path d="m121 296h30v30h-30z" fill="#ff4a4a"/><g fill="#2fbfef"><path d="m181 296h30v30h-30z"/><path d="m61 363h30v30h-30z"/><path d="m121 363h30v30h-30z"/><path d="m181 363h30v30h-30z"/><path d="m241 363v30h15l6.779-15.462-6.779-14.538z"/><path d="m241 296v30h15l5.458-14.847-5.458-15.153z"/><path d="m241 230v30h15l5.788-15.232-5.788-14.768z"/></g><path d="m301 230h30v30h-30z" fill="#2681ff"/><path d="m361 230h30v30h-30z" fill="#2681ff"/><path d="m421 230h30v30h-30z" fill="#2681ff"/><path d="m256 363h15v30h-15z" fill="#2681ff"/><path d="m256 296h15v30h-15z" fill="#2681ff"/><path d="m256 230h15v30h-15z" fill="#2681ff"/><path d="m407.286 304.547-14.581-13.963c-50.863 7.116-90.132 50.91-90.132 103.702 0 57.739 46.974 104.713 104.713 104.713.091 0 .182-.003.273-.003l10.449-103.954-10.449-90.759z" fill="#ffd944"/><path d="m512 394.287c0-52.838-39.338-96.661-90.264-103.72l-14.177 13.717v194.713c57.614-.148 104.441-47.062 104.441-104.71z" fill="#ff9000"/><path d="m407.286 289.573c-5.093 0-10.1.373-15 1.079v118.635h15.273l4.505-59.492-4.505-60.217c-.091-.001-.182-.005-.273-.005z" fill="#495959"/><path d="m452 379.287h-29.714v-88.635c-4.813-.693-9.729-1.061-14.727-1.074v119.709h44.441z" fill="#323c3c"/></g></svg>