<?xml version="1.0" encoding="iso-8859-1"?>
<!-- Generator: Adobe Illustrator 19.0.0, SVG Export Plug-In . SVG Version: 6.00 Build 0)  -->
<svg version="1.1" id="Capa_1" xmlns="http://www.w3.org/2000/svg" xmlns:xlink="http://www.w3.org/1999/xlink" x="0px" y="0px"
	 viewBox="0 0 512 512" style="enable-background:new 0 0 512 512;" xml:space="preserve">
<path style="fill:#ACC3D1;" d="M464.446,512H47.552c-14.074,0-25.484-11.409-25.484-25.484V69.621
	c0-14.074,11.409-25.484,25.484-25.484h416.895c14.074,0,25.484,11.409,25.484,25.484v416.895
	C489.93,500.591,478.521,512,464.446,512z"/>
<path style="fill:#8FAAB5;" d="M464.446,44.138h-31.757V512h31.757c14.074,0,25.484-11.41,25.484-25.484V69.621
	C489.93,55.547,478.521,44.138,464.446,44.138z"/>
<path style="fill:#FF4C4C;" d="M464.446,44.138H47.552c-14.074,0-25.484,11.409-25.484,25.484v66.93H489.93v-66.93
	C489.93,55.547,478.521,44.138,464.446,44.138z"/>
<path style="fill:#EF2929;" d="M464.446,44.138h-31.757v92.413h57.24v-66.93C489.93,55.547,478.521,44.138,464.446,44.138z"/>
<g>
	<path style="fill:#BAD5E5;" d="M94.285,88.275L94.285,88.275c-11.74,0-21.258-9.517-21.258-21.258v-45.76
		C73.026,9.517,82.544,0,94.285,0l0,0c11.74,0,21.258,9.517,21.258,21.258v45.76C115.542,78.758,106.024,88.275,94.285,88.275z"/>
	<path style="fill:#BAD5E5;" d="M202.094,88.275L202.094,88.275c-11.74,0-21.258-9.517-21.258-21.258v-45.76
		C180.837,9.517,190.354,0,202.094,0l0,0c11.74,0,21.258,9.517,21.258,21.258v45.76C223.352,78.758,213.835,88.275,202.094,88.275z"
		/>
	<path style="fill:#BAD5E5;" d="M309.904,88.275L309.904,88.275c-11.74,0-21.258-9.517-21.258-21.258v-45.76
		C288.646,9.517,298.164,0,309.904,0l0,0c11.74,0,21.258,9.517,21.258,21.258v45.76C331.162,78.758,321.644,88.275,309.904,88.275z"
		/>
	<path style="fill:#BAD5E5;" d="M417.714,88.275L417.714,88.275c-11.74,0-21.258-9.517-21.258-21.258v-45.76
		C396.456,9.517,405.974,0,417.714,0l0,0c11.74,0,21.258,9.517,21.258,21.258v45.76C438.972,78.758,429.454,88.275,417.714,88.275z"
		/>
</g>
<path style="fill:#EEF8FF;" d="M55.222,136.551v312.594c0,11.656,9.449,21.106,21.105,21.106h359.342
	c11.656,0,21.105-9.449,21.105-21.106V136.551H55.222z"/>
<path style="fill:#BAD5E5;" d="M399.535,136.551v333.7h36.135c11.656,0,21.105-9.449,21.105-21.106V136.551H399.535z"/>
<g>
	<path style="fill:#3D6687;" d="M208.283,286.565c12.337-5.776,21.262-21.262,21.262-44.1c0-34.124-20.737-46.462-50.136-46.462
		c-42.525,0-53.287,27.563-53.287,43.313c0,8.662,2.1,11.287,11.55,11.287c7.612,0,10.5-3.938,10.5-9.712
		c0-11.025,6.037-25.2,30.712-25.2c19.688,0,29.4,9.45,29.4,30.712c0,25.2-11.812,31.5-30.449,31.5
		c-5.513,0-7.613,4.725-7.613,9.187c0,4.725,2.1,9.187,7.613,9.187c21.262,0,35.175,9.187,35.175,32.025v4.987
		c0,25.2-12.075,36.225-35.175,36.225c-25.462,0-34.387-14.963-34.387-26.25c0-5.512-2.363-8.662-11.288-8.662
		c-7.35,0-10.237,2.1-10.237,10.238c0,19.949,17.062,44.624,55.912,44.624c31.5,0,57.224-15.224,57.224-56.174v-4.987
		C235.057,305.465,223.77,292.865,208.283,286.565z"/>
	<path style="fill:#3D6687;" d="M316.428,196.004c-31.762,0-56.437,15.488-56.437,57.225v79.012
		c0,41.737,24.675,57.224,56.437,57.224s56.699-15.487,56.699-57.224v-79.012C373.127,211.491,348.19,196.004,316.428,196.004z
		 M351.077,332.24c0,25.462-13.125,37.275-34.649,37.275c-21.525,0-34.387-11.813-34.387-37.275v-79.012
		c0-25.462,12.863-37.275,34.387-37.275c21.525,0,34.649,11.813,34.649,37.275V332.24z"/>
</g>
<g>
</g>
<g>
</g>
<g>
</g>
<g>
</g>
<g>
</g>
<g>
</g>
<g>
</g>
<g>
</g>
<g>
</g>
<g>
</g>
<g>
</g>
<g>
</g>
<g>
</g>
<g>
</g>
<g>
</g>
</svg>
