<svg id="Flat" height="512" viewBox="0 0 512 512" width="512" xmlns="http://www.w3.org/2000/svg"><rect fill="#e9eef2" height="272" rx="32" width="464" x="24" y="152"/><path d="m264 160h48a0 0 0 0 1 0 0v112a0 0 0 0 1 0 0 48 48 0 0 1 -48-48v-64a0 0 0 0 1 0 0z" fill="#eba72e" transform="matrix(-1 0 0 -1 576 432)"/><path d="m104 160a0 0 0 0 1 0 0v112a0 0 0 0 1 0 0h-48a0 0 0 0 1 0 0v-64a48 48 0 0 1 48-48z" fill="#eba72e"/><path d="m280 424h-64v-32h-64v32h-64a64 64 0 0 0 -64 64h320a64 64 0 0 0 -64-64z" fill="#60b8d1"/><path d="m216 392v32a32 32 0 0 1 -64 0v-32z" fill="#f0c6a4"/><circle cx="88" cy="272" fill="#f0c6a4" r="32"/><circle cx="280" cy="272" fill="#f0c6a4" r="32"/><path d="m88 184h192a0 0 0 0 1 0 0v144a64 64 0 0 1 -64 64h-64a64 64 0 0 1 -64-64v-144a0 0 0 0 1 0 0z" fill="#f7cca9"/><path d="m152 248h-32a8 8 0 0 1 0-16h32a8 8 0 0 1 0 16z" fill="#596063"/><path d="m248 248h-32a8 8 0 0 1 0-16h32a8 8 0 0 1 0 16z" fill="#596063"/><path d="m184 320a24.027 24.027 0 0 1 -24-24 8 8 0 0 1 16 0 8 8 0 0 0 16 0 8 8 0 0 1 16 0 24.027 24.027 0 0 1 -24 24z" fill="#c2a186"/><path d="m136 296a24.027 24.027 0 0 1 -24-24 8 8 0 0 1 16 0 8 8 0 0 0 16 0 8 8 0 0 1 16 0 24.027 24.027 0 0 1 -24 24z" fill="#596063"/><path d="m232 296a24.027 24.027 0 0 1 -24-24 8 8 0 0 1 16 0 8 8 0 0 0 16 0 8 8 0 0 1 16 0 24.027 24.027 0 0 1 -24 24z" fill="#596063"/><circle cx="184" cy="352" fill="#ed6f6d" r="16"/><circle cx="400" cy="112" fill="#9aa3a8" r="88"/><circle cx="400" cy="112" fill="#e9eef2" r="56"/><path d="m432 120h-32a8 8 0 0 1 -8-8v-48a8 8 0 0 1 16 0v40h24a8 8 0 0 1 0 16z" fill="#9aa3a8"/><path d="m368 328h-24a8 8 0 0 1 -6.4-12.8l14.4-19.2h-8a8 8 0 0 1 0-16h24a8 8 0 0 1 6.4 12.8l-14.4 19.2h8a8 8 0 0 1 0 16z" fill="#d0d2d4"/><path d="m456 384h-24a8 8 0 0 1 -6.4-12.8l14.4-19.2h-8a8 8 0 0 1 0-16h24a8 8 0 0 1 6.4 12.8l-14.4 19.2h8a8 8 0 0 1 0 16z" fill="#d0d2d4"/><path d="m456 304h-40a8 8 0 0 1 -6.146-13.121l29.066-34.879h-22.92a8 8 0 0 1 0-16h40a8 8 0 0 1 6.146 13.121l-29.065 34.879h22.919a8 8 0 0 1 0 16z" fill="#d0d2d4"/><path d="m280 160v32h-184l-1.87-.08-3.63-.16a63.989 63.989 0 0 1 -58.5-63.76h216a32 32 0 0 1 32 32z" fill="#ffb632"/><g fill="#eba72e"><path d="m136 192h-40l-1.87-.08a83.834 83.834 0 0 1 -9.47-9.47c-13.13-15.4-20.66-35.24-20.66-54.45h16c0 15.46 6.13 31.52 16.83 44.06 10.49 12.31 23.7 19.33 37.35 19.9.61.03 1.21.04 1.82.04z"/><path d="m176 192h-41.77a.1.1 0 0 0 -.05-.04 82.98 82.98 0 0 1 -9.52-9.51c-13.13-15.4-20.66-35.24-20.66-54.45h16c0 15.46 6.13 31.52 16.83 44.06 10.49 12.31 23.7 19.33 37.35 19.9.61.03 1.21.04 1.82.04z"/><path d="m216 192h-41.77a.1.1 0 0 0 -.05-.04 82.98 82.98 0 0 1 -9.52-9.51c-13.13-15.4-20.66-35.24-20.66-54.45h16c0 15.46 6.13 31.52 16.83 44.06 10.49 12.31 23.7 19.33 37.35 19.9.61.03 1.21.04 1.82.04z"/><path d="m256 192h-41.77a.1.1 0 0 0 -.05-.04 82.98 82.98 0 0 1 -9.52-9.51c-13.13-15.4-20.66-35.24-20.66-54.45h16c0 15.46 6.13 31.52 16.83 44.06 10.15 11.91 22.83 18.86 36 19.82 1.05.08 2.11.12 3.17.12z"/><path d="m280 189.67v2.33h-27.03c-.05-.04-.09-.08-.14-.12-17.13-15.12-28.83-39.42-28.83-63.88h16c0 27.06 18.12 54.71 40 61.67z"/></g></svg>