<svg height="512pt" viewBox="0 0 512.00058 512" width="512pt" xmlns="http://www.w3.org/2000/svg"><path d="m306.289062 109.28125 96.398438 96.394531 72.3125-72.296875c26.625-26.625 26.625-69.789062 0-96.414062-26.625-26.621094-69.789062-26.621094-96.414062 0l-36.148438 36.148437 96.414062 96.414063-96.414062-96.414063-301.289062 301.289063 96.414062 96.414062 265.125-265.140625zm0 0" fill="#bddbff"/><path d="m487.050781 24.917969c-33.300781-33.222657-87.210937-33.222657-120.511719 0l-337.457031 337.453125c-2.371093 2.375-3.992187 5.398437-4.652343 8.691406l-24.082032 120.445312c-1.882812 9.222657 4.0625 18.226563 13.285156 20.109376 2.253907.460937 4.574219.460937 6.828126 0l120.527343-24.097657c3.292969-.660156 6.316407-2.28125 8.691407-4.652343l337.457031-337.457032c33.183593-33.320312 33.148437-87.21875-.085938-120.492187zm-421.800781 349.484375 241.023438-241.023438 72.3125 72.316406-241.023438 241.023438zm265.121094-265.121094 12.066406-12.066406 72.316406 72.3125-12.066406 12.066406zm-278.757813 299.6875 51.386719 51.382812-64.238281 12.851563zm411.335938-287.640625-24.097657 24.101563-72.3125-72.3125 24.097657-24.101563c19.96875-19.96875 52.347656-19.96875 72.3125 0 19.96875 19.96875 19.96875 52.34375 0 72.3125zm0 0" fill="#3d9ae2"/></svg>