<svg height="512pt" viewBox="0 0 512 512" width="512pt" xmlns="http://www.w3.org/2000/svg"><path d="m502 136v346c0 11.050781-8.949219 20-20 20h-452c-11.050781 0-20-8.949219-20-20v-346zm0 0" fill="#fff"/><path d="m482 50c11.050781 0 20 8.949219 20 20v66h-492v-66c0-11.050781 8.949219-20 20-20zm0 0" fill="#ff5d5d"/><path d="m116 166c-5.519531 0-10 4.480469-10 10s4.480469 10 10 10 10-4.480469 10-10-4.480469-10-10-10zm0 0"/><path d="m30 512h452c16.542969 0 30-13.457031 30-30v-412c0-16.542969-13.457031-30-30-30h-16v-10c0-16.542969-13.457031-30-30-30s-30 13.457031-30 30v10h-60v-10c0-16.542969-13.457031-30-30-30s-30 13.457031-30 30v10h-60v-10c0-16.542969-13.457031-30-30-30s-30 13.457031-30 30v10h-60v-10c0-16.542969-13.457031-30-30-30s-30 13.457031-30 30v10h-16c-16.542969 0-30 13.457031-30 30v412c0 16.542969 13.457031 30 30 30zm452-20h-452c-5.515625 0-10-4.484375-10-10v-336h472v336c0 5.515625-4.484375 10-10 10zm-56-462c0-5.515625 4.484375-10 10-10s10 4.484375 10 10v10h-20zm-120 0c0-5.515625 4.484375-10 10-10s10 4.484375 10 10v10h-20zm-120 0c0-5.515625 4.484375-10 10-10s10 4.484375 10 10v10h-20zm-120 0c0-5.515625 4.484375-10 10-10s10 4.484375 10 10v10h-20zm-36 30h16v13c0 16.542969 13.457031 30 30 30 5.523438 0 10-4.476562 10-10s-4.476562-10-10-10c-5.515625 0-10-4.484375-10-10v-13h100v13c0 16.542969 13.457031 30 30 30 5.523438 0 10-4.476562 10-10s-4.476562-10-10-10c-5.515625 0-10-4.484375-10-10v-13h100v13c0 16.542969 13.457031 30 30 30 5.523438 0 10-4.476562 10-10s-4.476562-10-10-10c-5.515625 0-10-4.484375-10-10v-13h100v13c0 16.542969 13.457031 30 30 30 5.523438 0 10-4.476562 10-10s-4.476562-10-10-10c-5.515625 0-10-4.484375-10-10v-13h56c5.515625 0 10 4.484375 10 10v56h-472v-56c0-5.515625 4.484375-10 10-10zm0 0"/><path d="m396 166h-240c-5.523438 0-10 4.476562-10 10s4.476562 10 10 10h240c5.523438 0 10-4.476562 10-10s-4.476562-10-10-10zm0 0"/><path d="m256 226c-60.652344 0-110 49.347656-110 110 0 7.394531.738281 14.789062 2.199219 21.988281 1.097656 5.410157 6.378906 8.90625 11.789062 7.8125 5.414063-1.097656 8.910157-6.375 7.8125-11.789062-1.195312-5.890625-1.800781-11.953125-1.800781-18.011719 0-49.628906 40.375-90 90-90 49.628906 0 90 40.371094 90 90 0 49.625-40.371094 90-90 90-21.035156 0-40.804688-7.121094-56.628906-20h16.628906c5.523438 0 10-4.480469 10-10 0-5.523438-4.476562-10-10-10h-40c-5.332031 0-9.871094 4.261719-9.988281 9.792969-.003907.070312-.011719.136719-.011719.207031v40c0 5.519531 4.476562 10 10 10s10-4.480469 10-10v-15.082031c19.46875 16.148437 43.9375 25.082031 70 25.082031 60.652344 0 110-49.347656 110-110s-49.347656-110-110-110zm0 0"/></svg>