<?xml version="1.0" encoding="UTF-8"?>
<svg xmlns="http://www.w3.org/2000/svg" xmlns:xlink="http://www.w3.org/1999/xlink" width="12pt" height="12pt" viewBox="0 0 12 12" version="1.1">
<g id="surface1">
<path style=" stroke:none;fill-rule:nonzero;fill:rgb(27.058824%,35.294118%,39.215686%);fill-opacity:1;" d="M 11.640625 7.316406 L 10.539062 6.453125 C 10.570312 6.152344 10.570312 5.847656 10.539062 5.546875 L 11.640625 4.683594 C 11.847656 4.515625 11.902344 4.226562 11.773438 3.992188 L 10.625 2.011719 C 10.492188 1.777344 10.210938 1.675781 9.960938 1.773438 L 8.660156 2.292969 C 8.417969 2.117188 8.15625 1.964844 7.878906 1.839844 L 7.679688 0.460938 C 7.644531 0.195312 7.417969 -0.00390625 7.148438 0 L 4.847656 0 C 4.582031 0 4.359375 0.191406 4.320312 0.457031 L 4.121094 1.839844 C 3.847656 1.964844 3.585938 2.117188 3.339844 2.296875 L 2.039062 1.769531 C 1.789062 1.671875 1.507812 1.773438 1.378906 2.003906 L 0.230469 3.992188 C 0.09375 4.222656 0.152344 4.519531 0.359375 4.683594 L 1.464844 5.546875 C 1.429688 5.847656 1.429688 6.152344 1.464844 6.453125 L 0.359375 7.316406 C 0.152344 7.480469 0.0976562 7.773438 0.230469 8.003906 L 1.375 9.988281 C 1.507812 10.222656 1.789062 10.324219 2.039062 10.226562 L 3.339844 9.707031 C 3.585938 9.882812 3.847656 10.035156 4.121094 10.160156 L 4.320312 11.539062 C 4.355469 11.804688 4.582031 12 4.847656 12 L 7.148438 12 C 7.414062 12.003906 7.640625 11.808594 7.679688 11.542969 L 7.878906 10.160156 C 8.152344 10.035156 8.414062 9.882812 8.660156 9.703125 L 9.964844 10.230469 C 10.210938 10.328125 10.492188 10.226562 10.621094 9.996094 L 11.773438 8 C 11.902344 7.769531 11.847656 7.480469 11.640625 7.316406 Z M 6 8.5 C 4.617188 8.5 3.5 7.378906 3.5 6 C 3.5 4.621094 4.617188 3.5 6 3.5 C 7.378906 3.5 8.5 4.621094 8.5 6 C 8.496094 7.378906 7.378906 8.5 6 8.5 Z M 6 8.5 "/>
</g>
</svg>
