<?xml version="1.0" encoding="UTF-8"?>
<svg xmlns="http://www.w3.org/2000/svg" xmlns:xlink="http://www.w3.org/1999/xlink" width="14pt" height="14pt" viewBox="0 0 14 14" version="1.1">
<g id="surface1">
<path style=" stroke:none;fill-rule:nonzero;fill:rgb(95.686275%,26.27451%,21.176471%);fill-opacity:1;" d="M 7 0 C 3.140625 0 0 3.140625 0 7 C 0 10.859375 3.140625 14 7 14 C 10.859375 14 14 10.859375 14 7 C 14 3.140625 10.859375 0 7 0 Z M 7 0 "/>
<path style=" stroke:none;fill-rule:nonzero;fill:rgb(98.039216%,98.039216%,98.039216%);fill-opacity:1;" d="M 9.578125 8.753906 C 9.804688 8.980469 9.804688 9.351562 9.578125 9.578125 C 9.464844 9.691406 9.316406 9.75 9.164062 9.75 C 9.015625 9.75 8.867188 9.691406 8.753906 9.578125 L 7 7.824219 L 5.246094 9.578125 C 5.132812 9.691406 4.984375 9.75 4.835938 9.75 C 4.683594 9.75 4.535156 9.691406 4.421875 9.578125 C 4.195312 9.351562 4.195312 8.980469 4.421875 8.753906 L 6.175781 7 L 4.421875 5.246094 C 4.195312 5.019531 4.195312 4.648438 4.421875 4.421875 C 4.648438 4.195312 5.019531 4.195312 5.246094 4.421875 L 7 6.175781 L 8.753906 4.421875 C 8.980469 4.195312 9.351562 4.195312 9.578125 4.421875 C 9.804688 4.648438 9.804688 5.019531 9.578125 5.246094 L 7.824219 7 Z M 9.578125 8.753906 "/>
</g>
</svg>
