<?xml version="1.0" encoding="UTF-8"?>
<svg xmlns="http://www.w3.org/2000/svg" xmlns:xlink="http://www.w3.org/1999/xlink" width="12pt" height="12pt" viewBox="0 0 12 12" version="1.1">
<g id="surface1">
<path style=" stroke:none;fill-rule:nonzero;fill:rgb(95.686275%,26.27451%,21.176471%);fill-opacity:1;" d="M 6 0 C 2.691406 0 0 2.691406 0 6 C 0 9.308594 2.691406 12 6 12 C 9.308594 12 12 9.308594 12 6 C 12 2.691406 9.308594 0 6 0 Z M 6 0 "/>
<path style=" stroke:none;fill-rule:nonzero;fill:rgb(98.039216%,98.039216%,98.039216%);fill-opacity:1;" d="M 8.210938 7.503906 C 8.40625 7.699219 8.40625 8.015625 8.210938 8.210938 C 8.113281 8.308594 7.984375 8.355469 7.855469 8.355469 C 7.726562 8.355469 7.601562 8.308594 7.503906 8.210938 L 6 6.707031 L 4.496094 8.210938 C 4.398438 8.308594 4.273438 8.355469 4.144531 8.355469 C 4.015625 8.355469 3.886719 8.308594 3.789062 8.210938 C 3.59375 8.015625 3.59375 7.699219 3.789062 7.503906 L 5.292969 6 L 3.789062 4.496094 C 3.59375 4.300781 3.59375 3.984375 3.789062 3.789062 C 3.984375 3.59375 4.300781 3.59375 4.496094 3.789062 L 6 5.292969 L 7.503906 3.789062 C 7.699219 3.59375 8.015625 3.59375 8.210938 3.789062 C 8.40625 3.984375 8.40625 4.300781 8.210938 4.496094 L 6.707031 6 Z M 8.210938 7.503906 "/>
</g>
</svg>
