<svg width="24" height="24" xmlns="http://www.w3.org/2000/svg">

 <g>
  <title>background</title>
  <rect fill="none" id="canvas_background" height="402" width="582" y="-1" x="-1"/>
 </g>
 <g>
  <title>Layer 1</title>
  <path fill="#0e2a47" id="svg_1" d="m13.75,7l-0.75,0l0,-2c0,-2.757 -2.243,-5 -5,-5s-5,2.243 -5,5l0,2l-0.75,0c-1.24,0 -2.25,1.01 -2.25,2.25l0,8.5c0,1.24 1.01,2.25 2.25,2.25l7.1,0c0.55,-1.18 1.76,-2 3.15,-2l3.49,0c0.01,-0.08 0.01,-0.17 0.01,-0.25l0,-8.5c0,-1.24 -1.01,-2.25 -2.25,-2.25zm-8.75,0l0,-2c0,-1.654 1.346,-3 3,-3s3,1.346 3,3l0,2l-6,0z"/>
  <path fill="#0e2a47" id="svg_2" d="m21,18c-1.302,0 -2.402,0.839 -2.816,2l-5.684,0c-0.827,0 -1.5,0.673 -1.5,1.5l0,1.5c0,0.552 0.447,1 1,1s1,-0.448 1,-1l0,-1l5.184,0c0.414,1.161 1.514,2 2.816,2c1.654,0 3,-1.346 3,-3s-1.346,-3 -3,-3zm0,4c-0.552,0 -1,-0.449 -1,-1s0.448,-1 1,-1s1,0.449 1,1s-0.448,1 -1,1z"/>
 </g>
</svg>