<?xml version="1.0" encoding="iso-8859-1"?>
<!-- Generator: Adobe Illustrator 19.0.0, SVG Export Plug-In . SVG Version: 6.00 Build 0)  -->
<svg version="1.1" id="Capa_1" xmlns="http://www.w3.org/2000/svg" xmlns:xlink="http://www.w3.org/1999/xlink" x="0px" y="0px"
	 viewBox="0 0 576 576" style="enable-background:new 0 0 576 576;" xml:space="preserve">
<path style="fill:#E6E6E6;" d="M56,56h352c30.928,0,56,25.072,56,56v256c0,30.928-25.072,56-56,56H56c-30.928,0-56-25.072-56-56V112
	C0,81.072,25.072,56,56,56z"/>
<path style="fill:#29ABE2;" d="M64,96h336c13.255,0,24,10.745,24,24v216c0,13.255-10.745,24-24,24H64c-13.255,0-24-10.745-24-24V120
	C40,106.745,50.745,96,64,96z"/>
<path style="fill:#B3B3B3;" d="M128,488l16-64h96v64H128z"/>
<path style="fill:#CCCCCC;" d="M240,520H48c-8.837,0-16-7.163-16-16s7.163-16,16-16h192V520z"/>
<path style="fill:#0071BC;" d="M544,480V232c0-13.255-10.745-24-24-24H232c-13.255,0-24,10.745-24,24v248H544z"/>
<g>
	<path style="fill:#CCCCCC;" d="M520,208h-96v272h120V232C544,218.745,533.255,208,520,208z"/>
	<path style="fill:#CCCCCC;" d="M208,360h336v64H208V360z"/>
</g>
<path style="fill:#999999;" d="M208,424h336v48H208V424z"/>
<path style="fill:#E6E6E6;" d="M560,496V248c0-13.255-10.745-24-24-24H248c-13.255,0-24,10.745-24,24v248H560z"/>
<path style="fill:#B3B3B3;" d="M384,448h16v16h-16V448z"/>
<path style="fill:#29ABE2;" d="M256,256h272v168H256V256z"/>
<path style="fill:#CCCCCC;" d="M576,472v24c0,13.255-10.745,24-24,24l0,0H232c-13.255,0-24-10.745-24-24l0,0v-24h112l16,16h112
	l16-16H576z"/>
<g>
	<path style="fill:#80CAEC;" d="M296,336h-16v-39.856c0.009-8.912,7.232-16.135,16.144-16.144H352v16h-55.856L296,336z"/>
	<path style="fill:#80CAEC;" d="M368,280h16v16h-16V280z"/>
</g>
<path style="fill:#999999;" d="M208,496v-8h-16v8c0,13.255,10.745,24,24,24l0,0h16C218.745,520,208,509.255,208,496L208,496z"/>
<g>
	<path style="fill:#80CAEC;" d="M88,192H72v-47.856c0.009-8.912,7.232-16.135,16.144-16.144H208v16H88.144L88,192z"/>
	<path style="fill:#80CAEC;" d="M224,128h16v16h-16V128z"/>
</g>
<g>
</g>
<g>
</g>
<g>
</g>
<g>
</g>
<g>
</g>
<g>
</g>
<g>
</g>
<g>
</g>
<g>
</g>
<g>
</g>
<g>
</g>
<g>
</g>
<g>
</g>
<g>
</g>
<g>
</g>
</svg>
