<?xml version="1.0" encoding="utf-8"?>
<!-- Generator: Adobe Illustrator 24.0.0, SVG Export Plug-In . SVG Version: 6.00 Build 0)  -->
<svg version="1.1" id="Capa_1" xmlns="http://www.w3.org/2000/svg" xmlns:xlink="http://www.w3.org/1999/xlink" x="0px" y="0px"
	 viewBox="0 0 284 338.9" style="enable-background:new 0 0 284 338.9;" xml:space="preserve">
<style type="text/css">
	.st0{fill:#C6C6C5;}
	.st1{fill:#FFFFFF;}
	.st2{clip-path:url(#SVGID_2_);fill:#090C0E;}
	.st3{clip-path:url(#SVGID_2_);}
	.st4{fill:#090C0E;}
	.st5{clip-path:url(#SVGID_4_);fill:#FFFFFF;}
	.st6{clip-path:url(#SVGID_4_);fill:none;stroke:#4A7C99;stroke-miterlimit:10;}
	.st7{clip-path:url(#SVGID_4_);}
	.st8{fill:none;stroke:#4A7C99;stroke-miterlimit:10;}
	.st9{fill:#4A7C99;}
	.st10{fill:#4896D2;}
	.st11{fill:#15334A;}
</style>
<g>
	<ellipse class="st0" cx="139.98" cy="282.91" rx="7.45" ry="1.7"/>
	<path class="st1" d="M88.86,281.93c-3.89,1.49-7.83,2.89-11.66,4.52c-1.49,0.64-2.9,1.67-4.09,2.78c-2.5,2.32-2.55,5.09,0.16,7.17
		c2.26,1.73,4.85,3.18,7.5,4.25c7.41,2.99,15.24,4.36,23.11,5.45c18.04,2.5,36.15,2.89,54.31,1.77c11.05-0.69,22.05-1.82,32.77-4.66
		c4.27-1.13,8.41-2.83,12.51-4.52c1.48-0.61,2.82-1.79,3.94-2.98c1.82-1.93,1.9-4.3-0.13-5.99c-2.19-1.82-4.71-3.35-7.29-4.54
		c-2.85-1.31-5.95-2.1-8.92-3.25c3.38,0.67,6.78,1.26,10.13,2.02c6.13,1.38,12.22,2.94,17.84,5.83c2.21,1.14,4.36,2.57,6.17,4.27
		c2.64,2.49,2.53,5.46,0.02,8.11c-2.93,3.09-6.76,4.69-10.62,6.16c-8.73,3.31-17.85,5.03-27.03,6.39
		c-16.01,2.38-32.14,3.41-48.32,3.19c-11.05-0.15-22.1-0.74-33.12-1.59c-11.77-0.9-23.44-2.75-34.82-6.04
		c-4.85-1.4-9.62-3.04-13.87-5.85c-6.06-4-6.07-8.69,0-12.69c4.67-3.08,9.92-4.85,15.27-6.22c5.34-1.37,10.74-2.48,16.12-3.7
		C88.85,281.84,88.86,281.88,88.86,281.93z"/>
	<path class="st1" d="M174.05,277.93c6.26,0.98,12.54,2.1,18.1,5.52c0.63,0.39,1.23,0.88,1.74,1.41c1.67,1.73,1.78,3.82-0.12,5.34
		c-1.77,1.42-3.8,2.64-5.9,3.49c-7.02,2.83-14.45,4-21.92,4.89c-15.41,1.84-30.85,1.98-46.3,0.6c-8.72-0.78-17.4-1.92-25.72-4.82
		c-2.3-0.8-4.59-1.87-6.61-3.22c-3.34-2.23-3.38-5.18,0.04-7.28c2.75-1.68,5.85-2.91,8.92-3.94c3.13-1.05,6.42-1.62,9.69-2.14
		c-1.96,0.8-3.96,1.51-5.86,2.43c-1.68,0.82-3.56,1.77-3.55,3.97c0.01,2.12,1.84,3.03,3.46,3.87c4.44,2.3,9.28,3.31,14.16,4.09
		c14.18,2.28,28.43,2.49,42.71,1.15c6.91-0.65,13.76-1.61,20.31-4.02c1.54-0.57,3.07-1.33,4.42-2.26c2.53-1.74,2.59-4.05,0.01-5.68
		c-2.01-1.27-4.33-2.07-6.51-3.06C174.77,278.12,174.4,278.04,174.05,277.93z"/>
	<g>
		<defs>
			<path id="SVGID_1_" d="M144.63,34.8c1.62,0.17,3.24,0.35,4.87,0.49c6.12,0.53,12.1,1.79,17.96,3.61
				c10.4,3.23,19.9,8.19,28.52,14.83c9.83,7.57,17.83,16.75,23.95,27.56c4.68,8.28,8.02,17.05,9.94,26.38
				c1.55,7.55,2.09,15.16,1.8,22.87c-0.54,14.03-4.67,27-10.91,39.48c-9.45,18.92-20.39,36.93-32.52,54.23
				c-6.78,9.67-13.73,19.23-20.9,28.62c-6.31,8.27-13.02,16.23-19.56,24.32c-1.11,1.38-2.26,2.73-3.38,4.1
				c-2.1,2.58-5.92,2.65-8.03,0.05c-8.27-10.2-16.63-20.34-24.73-30.68c-10.73-13.71-20.72-27.97-30.11-42.64
				c-7.28-11.36-14.09-23.01-20.17-35.07c-4.18-8.29-8.08-16.68-10.13-25.81c-1.24-5.55-2.03-11.14-2.25-16.83
				c-0.28-7.14,0.2-14.21,1.53-21.24c2.96-15.52,9.54-29.32,19.65-41.4c11.69-13.97,26.31-23.63,43.72-28.98
				c6.77-2.08,13.7-3.38,20.8-3.67c0.36-0.01,0.72-0.15,1.08-0.23C138.72,34.8,141.68,34.8,144.63,34.8z"/>
		</defs>
		<use xlink:href="#SVGID_1_"  style="overflow:visible;fill:#090C0E;"/>
		<clipPath id="SVGID_2_">
			<use xlink:href="#SVGID_1_"  style="overflow:visible;"/>
		</clipPath>
		<path class="st2" d="M144.63,34.8c1.62,0.17,3.24,0.35,4.87,0.49c6.12,0.53,12.1,1.79,17.96,3.61c10.4,3.23,19.9,8.19,28.52,14.83
			c9.83,7.57,17.83,16.75,23.95,27.56c4.68,8.28,8.02,17.05,9.94,26.38c1.55,7.55,2.09,15.16,1.8,22.87
			c-0.54,14.03-4.67,27-10.91,39.48c-9.45,18.92-20.39,36.93-32.52,54.23c-6.78,9.67-13.73,19.23-20.9,28.62
			c-6.31,8.27-13.02,16.23-19.56,24.32c-1.11,1.38-2.26,2.73-3.38,4.1c-2.1,2.58-5.92,2.65-8.03,0.05
			c-8.27-10.2-16.63-20.34-24.73-30.68c-10.73-13.71-20.72-27.97-30.11-42.64c-7.28-11.36-14.09-23.01-20.17-35.07
			c-4.18-8.29-8.08-16.68-10.13-25.81c-1.24-5.55-2.03-11.14-2.25-16.83c-0.28-7.14,0.2-14.21,1.53-21.24
			c2.96-15.52,9.54-29.32,19.65-41.4c11.69-13.97,26.31-23.63,43.72-28.98c6.77-2.08,13.7-3.38,20.8-3.67
			c0.36-0.01,0.72-0.15,1.08-0.23C138.72,34.8,141.68,34.8,144.63,34.8z"/>
		<polyline class="st2" points="81.67,48.76 119.16,48.76 137.4,67.85 		"/>
		<g class="st3">
			<polyline class="st4" points="3.6,88.59 34.65,118.23 68.51,118.23 97.05,146.12 			"/>
			<polyline class="st4" points="-7.13,104.21 25.34,135.11 59.64,135.11 97.05,172.01 			"/>
			<polyline class="st4" points="80.49,105.79 113.61,138.11 113.61,179.59 91.13,201.04 -7.13,201.04 			"/>
			<line class="st4" x1="225.86" y1="61.04" x2="157.23" y2="124.67"/>
			<polyline class="st4" points="130.17,147.69 167.28,147.69 234.25,82.24 			"/>
			<line class="st4" x1="243.43" y1="88.59" x2="216.81" y2="113.8"/>
			<polyline class="st4" points="199.07,146.26 234.85,112.08 290.15,112.08 			"/>
			<polyline class="st4" points="114.94,202.04 162.85,155.84 233.23,155.84 252.74,137.11 299.17,137.11 317.8,118.94 			"/>
			<polyline class="st4" points="140.57,238.66 166.44,239.34 180.97,253.05 			"/>
			<polyline class="st4" points="148.95,202.04 178.96,173.15 246.68,173.15 263.09,189.45 287.92,189.45 			"/>
			<polyline class="st4" points="-0.54,216.48 171.42,217.34 198.04,191.03 			"/>
			<ellipse class="st4" cx="25.21" cy="135.02" rx="2.03" ry="1.97"/>
			<ellipse class="st4" cx="59.31" cy="135.02" rx="2.03" ry="1.97"/>
			<ellipse class="st4" cx="99.56" cy="174.44" rx="2.51" ry="2.43"/>
			<ellipse class="st4" cx="34.79" cy="118.38" rx="1.77" ry="1.72"/>
			<ellipse class="st4" cx="68.81" cy="118.38" rx="1.77" ry="1.72"/>
			<ellipse class="st4" cx="98.85" cy="147.41" rx="2.96" ry="2.86"/>
			<polyline class="st4" points="43.96,55.68 75.01,85.32 108.87,85.32 137.4,113.21 			"/>
			<ellipse class="st4" cx="75.14" cy="85.47" rx="1.77" ry="1.72"/>
			<ellipse class="st4" cx="109.16" cy="85.47" rx="1.77" ry="1.72"/>
			<ellipse class="st4" cx="139.2" cy="114.49" rx="2.96" ry="2.86"/>
			<ellipse class="st4" cx="139.24" cy="70.26" rx="2.96" ry="2.86"/>
			<ellipse class="st4" cx="199.93" cy="189.81" rx="2.96" ry="2.86"/>
			<ellipse class="st4" cx="137.02" cy="238.66" rx="3.54" ry="3.43"/>
			<ellipse class="st4" cx="264.32" cy="147.69" rx="2.96" ry="2.86"/>
			<ellipse class="st4" cx="215.53" cy="115.8" rx="2.96" ry="2.86"/>
			<line class="st4" x1="204.8" y1="51.1" x2="165.83" y2="88.01"/>
			<ellipse class="st4" cx="163.95" cy="90.95" rx="4.33" ry="4.19"/>
			<ellipse class="st4" cx="197.17" cy="147.63" rx="2.96" ry="2.86"/>
			<ellipse class="st4" cx="147.58" cy="203.83" rx="2.96" ry="2.86"/>
			<ellipse class="st4" cx="155.41" cy="126.31" rx="2.96" ry="2.86"/>
			<ellipse class="st4" cx="113.61" cy="203.83" rx="2.96" ry="2.86"/>
			<ellipse class="st4" cx="79.07" cy="103.99" rx="2.73" ry="2.64"/>
			<ellipse class="st4" cx="112.95" cy="137.63" rx="2.42" ry="2.34"/>
			<ellipse class="st4" cx="113.67" cy="178.78" rx="1.98" ry="1.92"/>
			<ellipse class="st4" cx="91.06" cy="200.97" rx="2" ry="1.93"/>
			<ellipse class="st4" cx="127.73" cy="147.63" rx="2.14" ry="2.07"/>
			<ellipse class="st4" cx="167.22" cy="147.63" rx="2.14" ry="2.07"/>
			<ellipse class="st4" cx="162.93" cy="156.18" rx="2.14" ry="2.07"/>
			<ellipse class="st4" cx="178.73" cy="173.15" rx="2.14" ry="2.07"/>
			<ellipse class="st4" cx="246.75" cy="173.15" rx="2.14" ry="2.07"/>
			<ellipse class="st4" cx="263.51" cy="189.03" rx="2.14" ry="2.07"/>
			<ellipse class="st4" cx="252.93" cy="137.63" rx="2.14" ry="2.07"/>
			<ellipse class="st4" cx="233" cy="155.49" rx="2.14" ry="2.07"/>
			<ellipse class="st4" cx="234.25" cy="112.08" rx="2.14" ry="2.07"/>
			<ellipse class="st4" cx="171.51" cy="217.34" rx="2.14" ry="2.07"/>
		</g>
	</g>
	<g>
		<defs>
			<path id="SVGID_3_" d="M144.27,38.89c1.59,0.16,3.19,0.35,4.79,0.49c6.02,0.52,11.9,1.76,17.66,3.55
				c10.22,3.18,19.57,8.06,28.05,14.59c9.67,7.45,17.54,16.48,23.56,27.11c4.61,8.14,7.89,16.77,9.77,25.94
				c1.53,7.43,2.06,14.91,1.77,22.49c-0.53,13.8-4.59,26.56-10.73,38.83c-9.3,18.61-20.05,36.33-31.98,53.33
				c-6.67,9.51-13.51,18.92-20.56,28.15c-6.21,8.13-12.81,15.96-19.24,23.92c-1.09,1.35-2.22,2.68-3.32,4.03
				c-2.07,2.53-5.82,2.61-7.9,0.05c-8.14-10.03-16.36-20-24.32-30.18c-10.56-13.49-20.38-27.51-29.62-41.93
				c-7.16-11.18-13.86-22.63-19.84-34.5c-4.11-8.15-7.95-16.41-9.96-25.38c-1.22-5.46-2-10.96-2.22-16.56
				c-0.27-7.03,0.19-13.97,1.51-20.89c2.91-15.26,9.38-28.83,19.32-40.72c11.5-13.74,25.87-23.25,43-28.51
				c6.65-2.04,13.47-3.33,20.45-3.61c0.36-0.01,0.71-0.15,1.06-0.23C138.45,38.89,141.36,38.89,144.27,38.89z"/>
		</defs>
		<clipPath id="SVGID_4_">
			<use xlink:href="#SVGID_3_"  style="overflow:visible;"/>
		</clipPath>
		<path class="st5" d="M144.27,38.89c1.59,0.16,3.19,0.35,4.79,0.49c6.02,0.52,11.9,1.76,17.66,3.55
			c10.22,3.18,19.57,8.06,28.05,14.59c9.67,7.45,17.54,16.48,23.56,27.11c4.61,8.14,7.89,16.77,9.77,25.94
			c1.53,7.43,2.06,14.91,1.77,22.49c-0.53,13.8-4.59,26.56-10.73,38.83c-9.3,18.61-20.05,36.33-31.98,53.33
			c-6.67,9.51-13.51,18.92-20.56,28.15c-6.21,8.13-12.81,15.96-19.24,23.92c-1.09,1.35-2.22,2.68-3.32,4.03
			c-2.07,2.53-5.82,2.61-7.9,0.05c-8.14-10.03-16.36-20-24.32-30.18c-10.56-13.49-20.38-27.51-29.62-41.93
			c-7.16-11.18-13.86-22.63-19.84-34.5c-4.11-8.15-7.95-16.41-9.96-25.38c-1.22-5.46-2-10.96-2.22-16.56
			c-0.27-7.03,0.19-13.97,1.51-20.89c2.91-15.26,9.38-28.83,19.32-40.72c11.5-13.74,25.87-23.25,43-28.51
			c6.65-2.04,13.47-3.33,20.45-3.61c0.36-0.01,0.71-0.15,1.06-0.23C138.45,38.89,141.36,38.89,144.27,38.89z"/>
		<polyline class="st6" points="82.34,52.61 119.21,52.61 137.16,71.4 		"/>
		<g class="st7">
			<polyline class="st8" points="5.56,91.79 36.1,120.94 69.4,120.94 97.47,148.37 			"/>
			<polyline class="st8" points="-5,107.16 26.94,137.54 60.68,137.54 97.47,173.84 			"/>
			<polyline class="st8" points="81.18,108.71 113.76,140.5 113.76,181.29 91.65,202.39 -5,202.39 			"/>
			<line class="st8" x1="224.16" y1="64.69" x2="156.66" y2="127.27"/>
			<polyline class="st8" points="130.04,149.92 166.54,149.92 232.41,85.55 			"/>
			<line class="st8" x1="241.44" y1="91.79" x2="215.26" y2="116.58"/>
			<polyline class="st8" points="197.81,148.52 233,114.9 287.39,114.9 			"/>
			<polyline class="st8" points="115.06,203.38 162.18,157.94 231.4,157.94 250.6,139.51 296.26,139.51 314.59,121.65 			"/>
			<polyline class="st8" points="140.27,239.39 165.72,240.06 180.01,253.55 			"/>
			<polyline class="st8" points="148.51,203.38 178.03,174.96 244.64,174.96 260.78,191 285.2,191 			"/>
			<polyline class="st8" points="1.49,217.58 170.62,218.43 196.79,192.54 			"/>
			<ellipse class="st9" cx="26.81" cy="137.46" rx="2" ry="1.93"/>
			<ellipse class="st9" cx="60.35" cy="137.46" rx="2" ry="1.93"/>
			<ellipse class="st8" cx="99.94" cy="176.23" rx="2.47" ry="2.39"/>
			<ellipse class="st10" cx="36.23" cy="121.1" rx="1.74" ry="1.69"/>
			<ellipse class="st9" cx="69.69" cy="121.1" rx="1.74" ry="1.69"/>
			<ellipse class="st8" cx="99.24" cy="149.64" rx="2.91" ry="2.81"/>
			<polyline class="st8" points="45.25,59.42 75.79,88.57 109.09,88.57 137.16,116 			"/>
			<ellipse class="st9" cx="75.92" cy="88.72" rx="1.74" ry="1.69"/>
			<ellipse class="st9" cx="109.38" cy="88.72" rx="1.74" ry="1.69"/>
			<ellipse class="st8" cx="138.93" cy="117.27" rx="2.91" ry="2.81"/>
			<ellipse class="st8" cx="138.96" cy="73.76" rx="2.91" ry="2.81"/>
			<ellipse class="st8" cx="198.66" cy="191.35" rx="2.91" ry="2.81"/>
			<ellipse class="st8" cx="136.79" cy="239.39" rx="3.49" ry="3.37"/>
			<ellipse class="st8" cx="261.99" cy="149.92" rx="2.91" ry="2.81"/>
			<ellipse class="st8" cx="214" cy="118.56" rx="2.91" ry="2.81"/>
			<line class="st8" x1="203.45" y1="54.92" x2="165.12" y2="91.23"/>
			<ellipse class="st8" cx="163.27" cy="94.11" rx="4.26" ry="4.12"/>
			<ellipse class="st8" cx="195.94" cy="149.86" rx="2.91" ry="2.81"/>
			<ellipse class="st8" cx="147.17" cy="205.13" rx="2.91" ry="2.81"/>
			<ellipse class="st9" cx="154.87" cy="128.89" rx="2.91" ry="2.81"/>
			<ellipse class="st8" cx="113.76" cy="205.13" rx="2.91" ry="2.81"/>
			<ellipse class="st8" cx="79.79" cy="106.94" rx="2.68" ry="2.59"/>
			<ellipse class="st9" cx="113.11" cy="140.02" rx="2.38" ry="2.3"/>
			<ellipse class="st9" cx="113.81" cy="180.5" rx="1.95" ry="1.88"/>
			<ellipse class="st9" cx="91.58" cy="202.32" rx="1.96" ry="1.9"/>
			<ellipse class="st9" cx="127.64" cy="149.86" rx="2.11" ry="2.04"/>
			<ellipse class="st9" cx="166.48" cy="149.86" rx="2.11" ry="2.04"/>
			<ellipse class="st9" cx="162.27" cy="158.28" rx="2.11" ry="2.04"/>
			<ellipse class="st9" cx="177.8" cy="174.96" rx="2.11" ry="2.04"/>
			<ellipse class="st9" cx="244.71" cy="174.96" rx="2.11" ry="2.04"/>
			<ellipse class="st9" cx="261.19" cy="190.58" rx="2.11" ry="2.04"/>
			<ellipse class="st9" cx="250.78" cy="140.02" rx="2.11" ry="2.04"/>
			<ellipse class="st9" cx="231.18" cy="157.59" rx="2.11" ry="2.04"/>
			<ellipse class="st9" cx="232.41" cy="114.9" rx="2.11" ry="2.04"/>
			<ellipse class="st9" cx="170.7" cy="218.43" rx="2.11" ry="2.04"/>
		</g>
	</g>
	<path class="st11" d="M89.06,103.91c0.12-3.35,0.97-15.11,10-23.51c10.95-10.18,29.48-11.29,45.07-1.72
		c12.03-6.73,26.31-6.13,36.12,1.47c9.26,7.17,11.03,17.84,11.4,20.53c2.2,0.88,9.77,4.23,14.47,12.77
		c1.56,2.82,4.97,10.17,3.08,18.77c-3.47,15.73-21.53,21.09-23.69,21.69c-13.54,3.79-24.97-1.78-28-3.38
		c-1.59,1.55-10.28,9.76-23.84,9.54c-12.88-0.21-21.05-7.86-22.77-9.54c-2.77,1.08-13.81,5.02-25.69,0
		c-2.42-1.02-15.71-6.64-17.69-19.23c-1.2-7.68,2.45-13.78,3.54-15.54C76.99,106.18,87.31,104.21,89.06,103.91z"/>
	<g>
		<g>
			<rect x="135.53" y="94.72" class="st4" width="11.72" height="46.88"/>
			<rect x="163.07" y="95.02" class="st4" width="12.01" height="46.58"/>
			<polygon class="st4" points="151.08,112.58 150.75,123.03 163.07,123.03 175.08,118.31 163.07,112.58 			"/>
			<path class="st4" d="M132.2,95.02v8.91l-10.83,0.29c-3.66,0.1-6.66,3-6.76,6.64c0,0.03,0,0.06,0,0.09c0,0.03,0,0.07,0,0.1
				c-0.07,4,3.24,7.26,7.27,7.26h10.33l-16.16,23.29h-13.26l12.3-15.87c-1.58-0.36-4.41-1.24-6.91-3.6
				c-4.31-4.07-5.26-10.29-3.98-15.24c1.27-4.93,4.8-8.76,8.68-10.59c2.82-1.33,5.53-1.42,10.96-1.58
				C127.27,94.62,130.16,94.81,132.2,95.02z"/>
		</g>
		<polygon class="st4" points="101.24,140.92 102.78,141.61 103.57,140.66 		"/>
		<polygon class="st4" points="130.66,117.62 132.14,118.31 129.97,118.3 		"/>
		<polygon class="st4" points="130.66,94.33 132.2,95.02 130.34,95.02 		"/>
		<polygon class="st4" points="135.53,141.61 133.99,140.92 136.05,140.79 		"/>
		<polygon class="st4" points="149.21,122.34 150.75,123.03 151,122.03 		"/>
		<polygon class="st4" points="145.71,94.03 147.24,94.72 145.31,94.91 		"/>
		<polygon class="st4" points="173.54,94.33 175.08,95.02 173.15,95.17 		"/>
		<polygon class="st4" points="161.53,140.92 163.07,141.61 163.07,140.69 		"/>
		<g>
			<rect x="133.99" y="94.03" class="st1" width="11.72" height="46.88"/>
			<rect x="161.53" y="94.33" class="st1" width="12.01" height="46.58"/>
			<polygon class="st1" points="149.54,111.89 149.21,122.34 161.53,122.34 173.54,117.62 161.53,111.89 			"/>
			<path class="st1" d="M130.66,94.33v8.91l-10.83,0.29c-3.66,0.1-6.66,3-6.76,6.64c0,0.03,0,0.06,0,0.09c0,0.03,0,0.07,0,0.1
				c-0.07,4,3.24,7.26,7.27,7.26h10.33l-16.16,23.29h-13.26l12.3-15.87c-1.58-0.36-4.41-1.24-6.91-3.6
				c-4.31-4.07-5.26-10.29-3.98-15.24c1.27-4.93,4.8-8.76,8.68-10.59c2.82-1.33,5.53-1.42,10.96-1.58
				C125.73,93.93,128.62,94.12,130.66,94.33z"/>
		</g>
	</g>
</g>
</svg>
