<svg enable-background="new 0 0 24 24" height="512" viewBox="0 0 24 24" width="512" xmlns="http://www.w3.org/2000/svg"><g id="color_1_"><path d="m19 9h-5.938l.934-7.882.004-.118c0-.561-.439-1-1-1-.313 0-.613.149-.816.423l-7.984 11.977c-.129.172-.2.385-.2.6 0 .561.439 1 1 1h4.944l-.941 8.897-.003.103c0 .561.439 1 1 1 .313 0 .613-.149.811-.416l8.989-12.984c.129-.172.2-.385.2-.6 0-.561-.439-1-1-1z" fill="#ffc107"/><path d="m18.83 12h-14.363l-.267.4c-.129.172-.2.385-.2.6 0 .561.439 1 1 1h4.944l-.941 8.897-.003.103c0 .561.439 1 1 1 .313 0 .613-.149.811-.416z" fill="#dea806"/></g></svg>