<?xml version="1.0"?>
<svg xmlns="http://www.w3.org/2000/svg" xmlns:xlink="http://www.w3.org/1999/xlink" xmlns:svgjs="http://svgjs.com/svgjs" version="1.1" width="512" height="512" x="0" y="0" viewBox="0 0 32 32" style="enable-background:new 0 0 512 512" xml:space="preserve" class=""><g><path xmlns="http://www.w3.org/2000/svg" d="m26 32h-20c-3.314 0-6-2.686-6-6v-20c0-3.314 2.686-6 6-6h20c3.314 0 6 2.686 6 6v20c0 3.314-2.686 6-6 6z" fill="#e2e7f1" data-original="#e3f8fa" style="" class=""/><g xmlns="http://www.w3.org/2000/svg" fill="#26c6da"><path d="m22.333 14.667h-12.666c-.552 0-1 .448-1 1v.667c0 .552.448 1 1 1h12.667c.552 0 1-.448 1-1v-.667c-.001-.553-.448-1-1.001-1z" fill="#546483" data-original="#26c6da" style="" class=""/><path d="m14.667 9.667v12.667c0 .552.448 1 1 1h.667c.552 0 1-.448 1-1v-12.667c0-.552-.448-1-1-1h-.667c-.553 0-1 .447-1 1z" fill="#546483" data-original="#26c6da" style="" class=""/></g></g></svg>
