<?xml version="1.0"?>
<svg xmlns="http://www.w3.org/2000/svg" xmlns:xlink="http://www.w3.org/1999/xlink" viewBox="0 0 512 512" width="512" height="512"><linearGradient id="a" gradientUnits="userSpaceOnUse" x1="250.786" x2="250.786" y1="18" y2="466"><stop offset="0" stop-color="#00efd1"/><stop offset="1" stop-color="#00acea"/></linearGradient><linearGradient id="b" x1="280.504" x2="280.504" xlink:href="#a" y1="18" y2="466"/><linearGradient id="c" x1="256" x2="256" xlink:href="#a" y1="18" y2="466"/><path d="m299 293.259-21.5 24.89-45.151-63.843a9.988 9.988 0 0 0 -8.043-4.306h-.11a10.082 10.082 0 0 0 -8.032 4.129l-68.819 92.845a10.049 10.049 0 0 0 8.032 16.026h190.823a10.015 10.015 0 0 0 8.019-15.994l-39.624-53.183a10 10 0 0 0 -15.595-.564zm-37.265 49.741h-86.493l48.768-65.776 44.522 62.876 2.045 2.9zm64.539 0h-31.208l-5.657-8.013 16.591-19.214z" fill="url(#a)"/><path d="m280.5 263.915a31.376 31.376 0 1 0 -31.376-31.376 31.412 31.412 0 0 0 31.376 31.376zm0-42.752a11.376 11.376 0 1 1 -11.376 11.376 11.389 11.389 0 0 1 11.376-11.376z" fill="url(#b)"/><path d="m411.333 163.146-104.509-104.012-3.1-3.159a10.023 10.023 0 0 0 -7.058-2.975h-150.152a51.682 51.682 0 0 0 -51.514 51.8v302.4a51.682 51.682 0 0 0 51.514 51.8h218.972a51.682 51.682 0 0 0 51.514-51.8v-234.1a9.907 9.907 0 0 0 -2.831-7.07zm-103.333-74.941 74.458 74.795h-69.107c-3.111 0-5.351-2.949-5.351-6.059zm89 318.995a31.66 31.66 0 0 1 -31.514 31.8h-218.972a31.66 31.66 0 0 1 -31.514-31.8v-302.4a31.66 31.66 0 0 1 31.514-31.8h141.486v83.941c0 14.138 11.212 26.059 25.351 26.059h83.649z" fill="url(#c)"/></svg>
