<svg id="Capa_1" enable-background="new 0 0 496.17 496.17" height="512" viewBox="0 0 496.17 496.17" width="512" xmlns="http://www.w3.org/2000/svg"><g><g><g><path d="m276.495 273.119-12.681-122.845 6.45-35.11-72.1-11.78-26.79 63.98-21.92 53.18c-7.31 17.73-7.37 37.62-.19 55.39l28.94 71.55v107.35h110.83l.23-107.35c.16-.31.31-.62.46-.93z" fill="#ffeee6"/></g><path d="m278.967 286.839-2.472-13.72-12.681-122.845 2.734-14.879c-.904-.068-1.813-.115-2.734-.121h-.13c-7.521 0-14.933 2.132-21.147 6.367-10.841 7.388-16.963 19.097-16.963 31.743v60.063c.001 29.487 23.905 53.392 53.393 53.392z" fill="#ffdfcf"/><path d="m216.961 353.523c0-3.989-.769-7.94-2.264-11.637l-26.676-65.952c-7.18-17.77-7.12-37.66.19-55.39l21.92-53.18 24.308-58.053-36.275-5.927-26.79 63.98-21.92 53.18c-7.31 17.73-7.37 37.62-.19 55.39l28.94 71.55v107.35h32.322 6.435 72.074l.2-93.275c-.659-.052-34.854-.094-64.37-.12-4.369-.005-7.904-3.548-7.904-7.916z" fill="#ffdfcf"/><path d="m355.561 154.001c7.542-4.355 10.127-13.999 5.772-21.541l-21.396-37.06c-1.23-2.13-.386-4.855 1.831-5.919l5.041-2.417c15.511-7.439 21.195-26.653 12.228-41.334-8.968-14.681-28.658-18.395-42.358-7.991l-3.159 2.399c-2.025 1.538-4.94.95-6.211-1.252l-16.62-28.787c-4.355-7.542-13.999-10.127-21.541-5.772l-35.291 20.376c-2.683 1.549-6.118.44-7.388-2.386l-1.882-4.186c-7.159-15.926-26.136-22.689-41.753-14.88-15.192 7.596-19.964 26.994-10.029 40.771l4.723 6.55c1.812 2.513 1.056 6.042-1.628 7.591l-35.292 20.376c-7.542 4.355-10.126 13.999-5.772 21.541l70.645 122.361c4.355 7.542 13.999 10.126 21.541 5.772z" fill="#86e8d0"/><path d="m310.287 487.334v-81.353c0-13.572-11.002-24.574-24.574-24.574h-103.264c-13.572 0-24.574 11.002-24.574 24.574v81.353c0 4.88 3.956 8.836 8.836 8.836h134.739c4.881 0 8.837-3.956 8.837-8.836z" fill="#b5adb6"/><path d="m199.144 450.857c0-24.048 19.495-43.542 43.542-43.542h67.601v-1.334c0-13.572-11.002-24.574-24.574-24.574h-103.264c-13.572 0-24.574 11.002-24.574 24.574v81.353c0 4.88 3.956 8.836 8.836 8.836h32.432v-45.313z" fill="#a79ba7"/></g><path d="m307.617 181.682-.958-11.802c-1.841-22.447-20.209-39.474-42.727-39.605h-.247c-11.514 0-22.339 4.485-30.482 12.629-2.644 2.644-4.902 5.572-6.746 8.713-3.519 5.997-12.232 5.903-15.709-.119l-45.029-77.992c-1.503-2.603-2.161-5.455-2.092-8.255l-23.018 13.289c-7.542 4.355-10.126 13.999-5.772 21.541l70.645 122.361c4.355 7.542 13.999 10.126 21.541 5.772l31.915-18.426z" fill="#5de1c4"/><path d="m263.815 150.273c11.98.07 21.93 9.28 22.91 21.24l6.81 83.84 1.56 4.52c4.13 11.98 6.18 24.45 6.18 36.88 0 17.11-3.87 34.15-11.55 49.8-27.145 0-49.15-22.005-49.15-49.15v-32.95-91.07c0-6.38 2.59-12.16 6.77-16.34s9.96-6.77 16.34-6.77z" fill="#ffeee6"/></g></svg>