<svg id="Capa_1" enable-background="new 0 0 512 512" height="512" viewBox="0 0 512 512" width="512" xmlns="http://www.w3.org/2000/svg"><g><path d="m363.355 330.323c0-100.338-81.34-181.677-181.677-181.677-34.284 0-66.349 9.496-93.71 26.002-52.716 31.801-77.206 89.622-77.206 155.676 0 100.338 70.578 171.138 170.916 171.138 66.061 0 123.887-24.719 155.686-77.445 16.498-27.358 25.991-59.418 25.991-93.694z" fill="#9e959e"/><path d="m345.504 309.101c-9.274-73.906-68.704-133.333-142.61-142.605-37.745-4.735-73.273 3.379-103.02 20.463-7.837 4.501-16.75-4.245-12.096-11.992l.19-.319c-56.86 34.308-93.414 98.898-87.303 171.43 7.343 87.155 78.102 157.913 165.257 165.257 72.533 6.111 137.132-30.459 171.441-87.318-.1.06-.229.146-.329.206-7.747 4.654-16.492-4.26-11.992-12.096 17.084-29.75 25.198-65.279 20.462-103.026z" fill="#887f88"/><circle cx="181.677" cy="330.323" fill="#eceaec" r="148.645"/><circle cx="181.677" cy="330.323" fill="#fff" r="132.129"/><path d="m297.29 338.581h-115.613c-2.194 0-4.29-.871-5.839-2.419l-74.323-74.323c-3.226-3.226-3.226-8.452 0-11.677 3.226-3.226 8.452-3.226 11.677 0l71.903 71.903h112.195c4.565 0 8.258 3.698 8.258 8.258s-3.693 8.258-8.258 8.258z" fill="#4e3d4d"/><g><path d="m181.677 231.226c-4.565 0-8.258-3.698-8.258-8.258v-8.258c0-4.56 3.694-8.258 8.258-8.258 4.565 0 8.258 3.698 8.258 8.258v8.258c0 4.56-3.693 8.258-8.258 8.258z" fill="#615260"/></g><g><path d="m181.677 454.194c-4.565 0-8.258-3.698-8.258-8.258v-8.258c0-4.56 3.694-8.258 8.258-8.258 4.565 0 8.258 3.698 8.258 8.258v8.258c0 4.56-3.693 8.258-8.258 8.258z" fill="#615260"/></g><g><path d="m74.322 338.581h-8.258c-4.565 0-8.258-3.698-8.258-8.258s3.694-8.258 8.258-8.258h8.258c4.565 0 8.258 3.698 8.258 8.258s-3.693 8.258-8.258 8.258z" fill="#615260"/></g><path d="m487.226 0h-214.71c-2.895 0-5.676.49-8.258 1.402l-8.258 23.372v189.977l24.774 24.774h206.452l23.371-8.299c.912-2.582 1.403-5.363 1.403-8.258v-198.194c0-13.682-11.092-24.774-24.774-24.774z" fill="#ff7e92"/><path d="m337.516 123.871v41.848c0 13.682 11.092 24.774 24.774 24.774h42.355l23.365-8.819c.912-2.582 1.409-5.361 1.409-8.255v-49.548z" fill="#eceaec"/><path d="m346.839 173.419v-49.548h-16.516v49.548c0 13.682 11.092 24.774 24.774 24.774h49.548c10.771 0 19.961-6.916 23.373-16.516h-72.922c-4.56.001-8.257-3.697-8.257-8.258z" fill="#dbd8db"/><path d="m264.258 198.194v-196.792c-9.6 3.413-16.516 12.601-16.516 23.372v198.194c0 13.682 11.092 24.774 24.774 24.774h8.258v35.071c0 5.342 6.459 8.018 10.237 4.24l39.312-39.311h156.903c10.771 0 19.958-6.916 23.371-16.516h-213.307c-18.243 0-33.032-14.789-33.032-33.032z" fill="#ff5f7a"/><path d="m404.645 49.549-71.35 14.701-15.638 42.679 12.666 33.459h8.258c9.122 0 16.516 7.395 16.516 16.516 0 4.561 3.697 8.258 8.258 8.258h33.032c4.561 0 8.258-3.697 8.258-8.258 0-9.122 7.395-16.516 16.516-16.516h8.258c9.122 0 16.516-7.395 16.516-16.516v-33.033c0-22.804-18.486-41.29-41.29-41.29z" fill="#fff"/><g fill="#ff7e92"><path d="m355.097 115.613h-8.258c-4.565 0-8.258-3.698-8.258-8.258s3.694-8.258 8.258-8.258h8.258c4.565 0 8.258 3.698 8.258 8.258s-3.694 8.258-8.258 8.258z"/><path d="m412.903 115.613h-8.258c-4.565 0-8.258-3.698-8.258-8.258s3.694-8.258 8.258-8.258h8.258c4.565 0 8.258 3.698 8.258 8.258s-3.693 8.258-8.258 8.258z"/><path d="m379.951 140.387h-.081c-4.565 0-8.258-3.698-8.258-8.258s3.694-8.258 8.258-8.258c4.565 0 8.298 3.698 8.298 8.258.001 4.561-3.652 8.258-8.217 8.258z"/></g><g><circle cx="181.677" cy="330.323" fill="#615260" r="16.516"/></g><path d="m404.645 49.549h-49.548c-22.804 0-41.29 18.486-41.29 41.29v33.032c0 9.121 7.395 16.516 16.516 16.516v-49.548c0-13.682 11.092-24.774 24.774-24.774h33.032c9.121 0 16.516-7.395 16.516-16.516z" fill="#eceaec"/></g></svg>