<svg id="Layer_1" enable-background="new 0 0 511.999 511.999" height="512" viewBox="0 0 511.999 511.999" width="512" xmlns="http://www.w3.org/2000/svg"><g><g fill="#020288"><path d="m382.176 77.148c-140.685-140.38-381.98-40.398-382.176 158.305.014 193.822 231.519 295.862 374.735 165.409 4.08-3.723 4.369-10.048.646-14.127-3.722-4.08-10.048-4.369-14.127-.646-129.304 118.916-341.782 25.212-341.254-150.64-.001-112.414 91.456-203.871 203.873-203.871 143.663-1.621 245.067 151.036 188.066 282.724-2.136 5.091.26 10.952 5.353 13.09 5.089 2.137 10.952-.256 13.091-5.35 35.173-81.987 15.736-182.422-48.207-244.894z"/><path d="m213.873 352.686v14.553c.528 13.268 19.476 13.258 20 0v-14.553c-.528-13.268-19.476-13.258-20 0z"/><path d="m92.086 225.451c-13.268.529-13.258 19.476 0 20h14.553c13.268-.529 13.258-19.476 0-20z"/><path d="m223.873 55.578c-99.183 0-179.874 80.691-179.874 179.874-.516 151.714 179.974 235.755 295.562 137.638 4.226-3.557 4.768-9.865 1.211-14.09-3.558-4.225-9.865-4.767-14.09-1.21-102.775 87.213-263.139 12.478-262.682-122.341-.001-84.795 66.358-154.385 149.873-159.563v159.564c0 5.523 4.478 10 10 10h159.568c-1.183 19.272-5.796 37.918-13.759 55.555-2.272 5.034-.034 10.957 5 13.229 5.032 2.274 10.956.035 13.229-5 54.245-116.548-35.421-255.175-164.038-253.656zm10 169.873v-149.564c80.209 4.973 144.592 69.355 149.564 149.564z"/><path d="m267.099 146.617 22.748-22.748c3.905-3.905 3.905-10.237 0-14.143-3.906-3.905-10.236-3.905-14.143 0l-22.748 22.748c-3.905 3.905-3.905 10.237 0 14.143 3.906 3.905 10.237 3.905 14.143 0z"/><path d="m321.269 141.148c-3.905-3.905-10.235-3.905-14.143 0l-45.529 45.528c-9.014 9.742 4.411 23.152 14.143 14.143l45.529-45.528c3.905-3.906 3.905-10.237 0-14.143z"/><path d="m315.8 209.46c3.906 3.905 10.237 3.905 14.143 0l22.747-22.748c3.905-3.905 3.905-10.237 0-14.142-3.906-3.905-10.236-3.905-14.143 0l-22.747 22.747c-3.905 3.906-3.905 10.237 0 14.143z"/></g><g><g><circle cx="401.44" cy="389.863" fill="#b2f0fb" r="110.559"/></g><g><g><path d="m381.237 447.468c-1.29 0-2.602-.251-3.865-.781-5.093-2.137-7.489-7.998-5.352-13.091l41.746-99.479c2.137-5.093 7.999-7.488 13.09-5.352 5.093 2.137 7.489 7.998 5.352 13.091l-41.746 99.479c-1.606 3.829-5.317 6.133-9.225 6.133z" fill="#020288"/></g><g><path d="m373.25 386.223c-15.686 0-28.446-14.102-28.446-31.436 1.571-41.706 55.325-41.697 56.892 0-.001 17.334-12.761 31.436-28.446 31.436zm0-42.872c-4.578 0-8.446 5.237-8.446 11.436s3.868 11.436 8.446 11.436 8.445-5.237 8.445-11.436-3.867-11.436-8.445-11.436z" fill="#020288"/></g><g><path d="m429.63 454.239c-15.686 0-28.446-14.103-28.446-31.437 1.571-41.706 55.325-41.697 56.892 0-.001 17.334-12.761 31.437-28.446 31.437zm0-42.873c-4.578 0-8.446 5.237-8.446 11.436s3.868 11.437 8.446 11.437 8.445-5.237 8.445-11.437-3.867-11.436-8.445-11.436z" fill="#020288"/></g></g></g></g></svg>