<?xml version="1.0" encoding="utf-8"?>
<!-- Generator: Adobe Illustrator 24.0.0, SVG Export Plug-In . SVG Version: 6.00 Build 0)  -->
<svg version="1.1" id="Capa_1" xmlns="http://www.w3.org/2000/svg" xmlns:xlink="http://www.w3.org/1999/xlink" x="0px" y="0px"
	 viewBox="0 0 284 338.9" style="enable-background:new 0 0 284 338.9;" xml:space="preserve">
<style type="text/css">
	.st0{fill:#0C202C;}
	.st1{fill:#153249;}
	.st2{clip-path:url(#SVGID_2_);fill:#0C202C;}
	.st3{clip-path:url(#SVGID_2_);}
	.st4{clip-path:url(#SVGID_4_);fill:#163652;}
	.st5{clip-path:url(#SVGID_4_);fill:none;stroke:#497B99;stroke-miterlimit:10;}
	.st6{clip-path:url(#SVGID_4_);}
	.st7{fill:none;stroke:#497B99;stroke-miterlimit:10;}
	.st8{fill:#497B99;}
	.st9{fill:#4998D3;}
	.st10{fill:#FFFFFF;}
	.st11{fill:#080C0E;}
	.st12{fill:#163652;}
</style>
<g>
	<ellipse class="st0" cx="143.91" cy="282.23" rx="7.45" ry="1.7"/>
	<path class="st0" d="M92.79,281.25c-3.89,1.49-7.83,2.89-11.66,4.52c-1.49,0.64-2.9,1.67-4.09,2.78c-2.5,2.32-2.55,5.09,0.16,7.17
		c2.26,1.73,4.85,3.18,7.5,4.25c7.41,2.99,15.24,4.36,23.11,5.45c18.04,2.5,36.15,2.89,54.31,1.77c11.05-0.69,22.05-1.82,32.77-4.66
		c4.27-1.13,8.41-2.83,12.51-4.52c1.48-0.61,2.82-1.79,3.94-2.98c1.82-1.93,1.9-4.3-0.13-5.99c-2.19-1.82-4.71-3.35-7.29-4.54
		c-2.85-1.31-5.95-2.1-8.92-3.25c3.38,0.67,6.78,1.26,10.13,2.02c6.13,1.38,12.22,2.94,17.84,5.83c2.21,1.14,4.36,2.57,6.17,4.27
		c2.64,2.49,2.53,5.46,0.02,8.11c-2.93,3.09-6.76,4.69-10.62,6.16c-8.73,3.31-17.85,5.03-27.03,6.39
		c-16.01,2.38-32.14,3.41-48.32,3.19c-11.05-0.15-22.1-0.74-33.12-1.59c-11.77-0.9-23.44-2.75-34.82-6.04
		c-4.85-1.4-9.62-3.04-13.87-5.85c-6.06-4-6.07-8.69,0-12.69c4.67-3.08,9.92-4.85,15.27-6.22c5.34-1.37,10.74-2.48,16.12-3.7
		C92.78,281.16,92.78,281.21,92.79,281.25z"/>
	<path class="st1" d="M177.98,277.25c6.26,0.98,12.54,2.1,18.1,5.52c0.63,0.39,1.23,0.88,1.74,1.41c1.67,1.73,1.78,3.82-0.12,5.34
		c-1.77,1.42-3.8,2.64-5.9,3.49c-7.02,2.83-14.45,4-21.92,4.89c-15.41,1.84-30.85,1.98-46.3,0.6c-8.72-0.78-17.4-1.92-25.72-4.82
		c-2.3-0.8-4.59-1.87-6.61-3.22c-3.34-2.23-3.38-5.18,0.04-7.28c2.75-1.68,5.85-2.91,8.92-3.94c3.13-1.05,6.42-1.62,9.69-2.14
		c-1.96,0.8-3.96,1.51-5.86,2.43c-1.68,0.82-3.56,1.77-3.55,3.97c0.01,2.12,1.84,3.03,3.46,3.87c4.44,2.3,9.28,3.31,14.16,4.09
		c14.18,2.28,28.43,2.49,42.71,1.15c6.91-0.65,13.76-1.61,20.31-4.02c1.54-0.57,3.07-1.33,4.42-2.26c2.53-1.74,2.59-4.05,0.01-5.68
		c-2.01-1.27-4.33-2.07-6.51-3.06C178.7,277.44,178.33,277.37,177.98,277.25z"/>
	<g>
		<defs>
			<path id="SVGID_1_" d="M148.56,34.13c1.62,0.17,3.24,0.35,4.87,0.49c6.12,0.53,12.1,1.79,17.96,3.61
				c10.4,3.23,19.9,8.19,28.52,14.83c9.83,7.57,17.83,16.75,23.95,27.56c4.68,8.28,8.02,17.05,9.94,26.38
				c1.55,7.55,2.09,15.16,1.8,22.87c-0.54,14.03-4.67,27-10.91,39.48c-9.45,18.92-20.39,36.93-32.52,54.23
				c-6.78,9.67-13.73,19.23-20.9,28.62c-6.31,8.27-13.02,16.23-19.56,24.32c-1.11,1.38-2.26,2.73-3.38,4.1
				c-2.1,2.58-5.92,2.65-8.03,0.05c-8.27-10.2-16.63-20.34-24.73-30.68c-10.73-13.71-20.72-27.97-30.11-42.64
				c-7.28-11.36-14.09-23.01-20.17-35.07c-4.18-8.29-8.08-16.68-10.13-25.81c-1.24-5.55-2.03-11.14-2.25-16.83
				c-0.28-7.14,0.2-14.21,1.53-21.24c2.96-15.52,9.54-29.32,19.65-41.4c11.69-13.97,26.31-23.63,43.72-28.98
				c6.77-2.08,13.7-3.38,20.8-3.67c0.36-0.01,0.72-0.15,1.08-0.23C142.65,34.13,145.6,34.13,148.56,34.13z"/>
		</defs>
		<use xlink:href="#SVGID_1_"  style="overflow:visible;fill:#0C202C;"/>
		<clipPath id="SVGID_2_">
			<use xlink:href="#SVGID_1_"  style="overflow:visible;"/>
		</clipPath>
		<path class="st2" d="M148.56,34.13c1.62,0.17,3.24,0.35,4.87,0.49c6.12,0.53,12.1,1.79,17.96,3.61
			c10.4,3.23,19.9,8.19,28.52,14.83c9.83,7.57,17.83,16.75,23.95,27.56c4.68,8.28,8.02,17.05,9.94,26.38
			c1.55,7.55,2.09,15.16,1.8,22.87c-0.54,14.03-4.67,27-10.91,39.48c-9.45,18.92-20.39,36.93-32.52,54.23
			c-6.78,9.67-13.73,19.23-20.9,28.62c-6.31,8.27-13.02,16.23-19.56,24.32c-1.11,1.38-2.26,2.73-3.38,4.1
			c-2.1,2.58-5.92,2.65-8.03,0.05c-8.27-10.2-16.63-20.34-24.73-30.68c-10.73-13.71-20.72-27.97-30.11-42.64
			c-7.28-11.36-14.09-23.01-20.17-35.07c-4.18-8.29-8.08-16.68-10.13-25.81c-1.24-5.55-2.03-11.14-2.25-16.83
			c-0.28-7.14,0.2-14.21,1.53-21.24c2.96-15.52,9.54-29.32,19.65-41.4c11.69-13.97,26.31-23.63,43.72-28.98
			c6.77-2.08,13.7-3.38,20.8-3.67c0.36-0.01,0.72-0.15,1.08-0.23C142.65,34.13,145.6,34.13,148.56,34.13z"/>
		<polyline class="st2" points="85.6,48.08 123.08,48.08 141.33,67.18 		"/>
		<g class="st3">
			<polyline class="st0" points="7.53,87.91 38.58,117.55 72.44,117.55 100.97,145.44 			"/>
			<polyline class="st0" points="-3.2,103.54 29.26,134.43 63.57,134.43 100.97,171.33 			"/>
			<polyline class="st0" points="84.41,105.11 117.53,137.43 117.53,178.91 95.06,200.36 -3.2,200.36 			"/>
			<line class="st0" x1="229.79" y1="60.36" x2="161.15" y2="123.99"/>
			<polyline class="st0" points="134.09,147.02 171.21,147.02 238.18,81.56 			"/>
			<line class="st0" x1="247.35" y1="87.91" x2="220.74" y2="113.12"/>
			<polyline class="st0" points="203,145.59 238.78,111.4 294.08,111.4 			"/>
			<polyline class="st0" points="118.87,201.36 166.77,155.17 237.15,155.17 256.67,136.43 303.1,136.43 321.73,118.27 			"/>
			<polyline class="st0" points="144.49,237.98 170.37,238.67 184.9,252.38 			"/>
			<polyline class="st0" points="152.87,201.36 182.89,172.47 250.61,172.47 267.02,188.78 291.84,188.78 			"/>
			<polyline class="st0" points="3.39,215.81 175.35,216.67 201.96,190.35 			"/>
			<ellipse class="st0" cx="29.14" cy="134.34" rx="2.03" ry="1.97"/>
			<ellipse class="st0" cx="63.23" cy="134.34" rx="2.03" ry="1.97"/>
			<ellipse class="st0" cx="103.49" cy="173.76" rx="2.51" ry="2.43"/>
			<ellipse class="st0" cx="38.72" cy="117.71" rx="1.77" ry="1.72"/>
			<ellipse class="st0" cx="72.73" cy="117.71" rx="1.77" ry="1.72"/>
			<ellipse class="st0" cx="102.77" cy="146.73" rx="2.96" ry="2.86"/>
			<polyline class="st0" points="47.88,55 78.93,84.64 112.79,84.64 141.33,112.53 			"/>
			<ellipse class="st0" cx="79.07" cy="84.8" rx="1.77" ry="1.72"/>
			<ellipse class="st0" cx="113.09" cy="84.8" rx="1.77" ry="1.72"/>
			<ellipse class="st0" cx="143.13" cy="113.82" rx="2.96" ry="2.86"/>
			<ellipse class="st0" cx="143.16" cy="69.58" rx="2.96" ry="2.86"/>
			<ellipse class="st0" cx="203.86" cy="189.14" rx="2.96" ry="2.86"/>
			<ellipse class="st0" cx="140.95" cy="237.98" rx="3.54" ry="3.43"/>
			<ellipse class="st0" cx="268.25" cy="147.02" rx="2.96" ry="2.86"/>
			<ellipse class="st0" cx="219.45" cy="115.13" rx="2.96" ry="2.86"/>
			<line class="st0" x1="208.73" y1="50.42" x2="169.76" y2="87.34"/>
			<ellipse class="st0" cx="167.87" cy="90.27" rx="4.33" ry="4.19"/>
			<ellipse class="st0" cx="201.1" cy="146.96" rx="2.96" ry="2.86"/>
			<ellipse class="st0" cx="151.51" cy="203.15" rx="2.96" ry="2.86"/>
			<ellipse class="st0" cx="159.34" cy="125.64" rx="2.96" ry="2.86"/>
			<ellipse class="st0" cx="117.53" cy="203.15" rx="2.96" ry="2.86"/>
			<ellipse class="st0" cx="83" cy="103.31" rx="2.73" ry="2.64"/>
			<ellipse class="st0" cx="116.87" cy="136.95" rx="2.42" ry="2.34"/>
			<ellipse class="st0" cx="117.59" cy="178.11" rx="1.98" ry="1.92"/>
			<ellipse class="st0" cx="94.99" cy="200.29" rx="2" ry="1.93"/>
			<ellipse class="st0" cx="131.66" cy="146.96" rx="2.14" ry="2.07"/>
			<ellipse class="st0" cx="171.15" cy="146.96" rx="2.14" ry="2.07"/>
			<ellipse class="st0" cx="166.86" cy="155.51" rx="2.14" ry="2.07"/>
			<ellipse class="st0" cx="182.66" cy="172.47" rx="2.14" ry="2.07"/>
			<ellipse class="st0" cx="250.68" cy="172.47" rx="2.14" ry="2.07"/>
			<ellipse class="st0" cx="267.43" cy="188.35" rx="2.14" ry="2.07"/>
			<ellipse class="st0" cx="256.85" cy="136.95" rx="2.14" ry="2.07"/>
			<ellipse class="st0" cx="236.92" cy="154.81" rx="2.14" ry="2.07"/>
			<ellipse class="st0" cx="238.18" cy="111.4" rx="2.14" ry="2.07"/>
			<ellipse class="st0" cx="175.43" cy="216.67" rx="2.14" ry="2.07"/>
		</g>
	</g>
	<g>
		<defs>
			<path id="SVGID_3_" d="M148.2,38.21c1.59,0.16,3.19,0.35,4.79,0.49c6.02,0.52,11.9,1.76,17.66,3.55
				c10.22,3.18,19.57,8.06,28.05,14.59c9.67,7.45,17.54,16.48,23.56,27.11c4.61,8.14,7.89,16.77,9.77,25.94
				c1.53,7.43,2.06,14.91,1.77,22.49c-0.53,13.8-4.59,26.56-10.73,38.83c-9.3,18.61-20.05,36.33-31.98,53.33
				c-6.67,9.51-13.51,18.92-20.56,28.15c-6.21,8.13-12.81,15.96-19.24,23.92c-1.09,1.35-2.22,2.68-3.32,4.03
				c-2.07,2.53-5.82,2.61-7.9,0.05c-8.14-10.03-16.36-20-24.32-30.18c-10.56-13.49-20.38-27.51-29.62-41.93
				c-7.16-11.18-13.86-22.63-19.84-34.5c-4.11-8.15-7.95-16.41-9.96-25.38c-1.22-5.46-2-10.96-2.22-16.56
				c-0.27-7.03,0.19-13.97,1.51-20.89C58.53,96.01,65,82.44,74.95,70.56c11.5-13.74,25.87-23.25,43-28.51
				c6.65-2.04,13.47-3.33,20.45-3.61c0.36-0.01,0.71-0.15,1.06-0.23C142.38,38.21,145.29,38.21,148.2,38.21z"/>
		</defs>
		<clipPath id="SVGID_4_">
			<use xlink:href="#SVGID_3_"  style="overflow:visible;"/>
		</clipPath>
		<path class="st4" d="M148.2,38.21c1.59,0.16,3.19,0.35,4.79,0.49c6.02,0.52,11.9,1.76,17.66,3.55
			c10.22,3.18,19.57,8.06,28.05,14.59c9.67,7.45,17.54,16.48,23.56,27.11c4.61,8.14,7.89,16.77,9.77,25.94
			c1.53,7.43,2.06,14.91,1.77,22.49c-0.53,13.8-4.59,26.56-10.73,38.83c-9.3,18.61-20.05,36.33-31.98,53.33
			c-6.67,9.51-13.51,18.92-20.56,28.15c-6.21,8.13-12.81,15.96-19.24,23.92c-1.09,1.35-2.22,2.68-3.32,4.03
			c-2.07,2.53-5.82,2.61-7.9,0.05c-8.14-10.03-16.36-20-24.32-30.18c-10.56-13.49-20.38-27.51-29.62-41.93
			c-7.16-11.18-13.86-22.63-19.84-34.5c-4.11-8.15-7.95-16.41-9.96-25.38c-1.22-5.46-2-10.96-2.22-16.56
			c-0.27-7.03,0.19-13.97,1.51-20.89C58.53,96.01,65,82.44,74.95,70.56c11.5-13.74,25.87-23.25,43-28.51
			c6.65-2.04,13.47-3.33,20.45-3.61c0.36-0.01,0.71-0.15,1.06-0.23C142.38,38.21,145.29,38.21,148.2,38.21z"/>
		<polyline class="st5" points="86.27,51.94 123.14,51.94 141.08,70.72 		"/>
		<g class="st6">
			<polyline class="st7" points="9.49,91.12 40.03,120.27 73.33,120.27 101.39,147.7 			"/>
			<polyline class="st7" points="-1.07,106.48 30.86,136.87 64.6,136.87 101.39,173.16 			"/>
			<polyline class="st7" points="85.11,108.03 117.68,139.82 117.68,180.62 95.58,201.72 -1.07,201.72 			"/>
			<line class="st7" x1="228.09" y1="64.02" x2="160.58" y2="126.6"/>
			<polyline class="st7" points="133.97,149.25 170.47,149.25 236.34,84.87 			"/>
			<line class="st7" x1="245.36" y1="91.12" x2="219.19" y2="115.91"/>
			<polyline class="st7" points="201.74,147.84 236.93,114.22 291.32,114.22 			"/>
			<polyline class="st7" points="118.99,202.7 166.11,157.27 235.33,157.27 254.53,138.84 300.19,138.84 318.51,120.97 			"/>
			<polyline class="st7" points="144.2,238.71 169.65,239.39 183.94,252.88 			"/>
			<polyline class="st7" points="152.44,202.7 181.96,174.29 248.56,174.29 264.71,190.32 289.12,190.32 			"/>
			<polyline class="st7" points="5.41,216.91 174.54,217.75 200.72,191.87 			"/>
			<ellipse class="st8" cx="30.74" cy="136.78" rx="2" ry="1.93"/>
			<ellipse class="st8" cx="64.27" cy="136.78" rx="2" ry="1.93"/>
			<ellipse class="st7" cx="103.87" cy="175.55" rx="2.47" ry="2.39"/>
			<ellipse class="st9" cx="40.16" cy="120.42" rx="1.74" ry="1.69"/>
			<ellipse class="st8" cx="73.62" cy="120.42" rx="1.74" ry="1.69"/>
			<ellipse class="st7" cx="103.16" cy="148.97" rx="2.91" ry="2.81"/>
			<polyline class="st7" points="49.17,58.75 79.71,87.9 113.02,87.9 141.08,115.33 			"/>
			<ellipse class="st8" cx="79.85" cy="88.05" rx="1.74" ry="1.69"/>
			<ellipse class="st8" cx="113.31" cy="88.05" rx="1.74" ry="1.69"/>
			<ellipse class="st7" cx="142.85" cy="116.59" rx="2.91" ry="2.81"/>
			<ellipse class="st7" cx="142.89" cy="73.09" rx="2.91" ry="2.81"/>
			<ellipse class="st7" cx="202.59" cy="190.68" rx="2.91" ry="2.81"/>
			<ellipse class="st7" cx="140.71" cy="238.71" rx="3.49" ry="3.37"/>
			<ellipse class="st7" cx="265.91" cy="149.25" rx="2.91" ry="2.81"/>
			<ellipse class="st7" cx="217.92" cy="117.88" rx="2.91" ry="2.81"/>
			<line class="st7" x1="207.38" y1="54.24" x2="169.04" y2="90.55"/>
			<ellipse class="st7" cx="167.19" cy="93.44" rx="4.26" ry="4.12"/>
			<ellipse class="st7" cx="199.87" cy="149.19" rx="2.91" ry="2.81"/>
			<ellipse class="st7" cx="151.1" cy="204.46" rx="2.91" ry="2.81"/>
			<ellipse class="st8" cx="158.79" cy="128.22" rx="2.91" ry="2.81"/>
			<ellipse class="st7" cx="117.68" cy="204.46" rx="2.91" ry="2.81"/>
			<ellipse class="st7" cx="83.72" cy="106.26" rx="2.68" ry="2.59"/>
			<ellipse class="st8" cx="117.03" cy="139.35" rx="2.38" ry="2.3"/>
			<ellipse class="st8" cx="117.74" cy="179.83" rx="1.95" ry="1.88"/>
			<ellipse class="st8" cx="95.5" cy="201.65" rx="1.96" ry="1.9"/>
			<ellipse class="st8" cx="131.57" cy="149.19" rx="2.11" ry="2.04"/>
			<ellipse class="st8" cx="170.41" cy="149.19" rx="2.11" ry="2.04"/>
			<ellipse class="st8" cx="166.19" cy="157.6" rx="2.11" ry="2.04"/>
			<ellipse class="st8" cx="181.73" cy="174.29" rx="2.11" ry="2.04"/>
			<ellipse class="st8" cx="248.64" cy="174.29" rx="2.11" ry="2.04"/>
			<ellipse class="st8" cx="265.11" cy="189.9" rx="2.11" ry="2.04"/>
			<ellipse class="st8" cx="254.71" cy="139.35" rx="2.11" ry="2.04"/>
			<ellipse class="st8" cx="235.11" cy="156.91" rx="2.11" ry="2.04"/>
			<ellipse class="st8" cx="236.34" cy="114.22" rx="2.11" ry="2.04"/>
			<ellipse class="st8" cx="174.63" cy="217.75" rx="2.11" ry="2.04"/>
		</g>
	</g>
	<path class="st10" d="M92.99,103.23c0.12-3.35,0.97-15.11,10-23.51c10.95-10.18,29.48-11.29,45.07-1.72
		c12.03-6.73,26.31-6.13,36.12,1.47c9.26,7.17,11.03,17.84,11.4,20.53c2.2,0.88,9.77,4.23,14.47,12.77
		c1.56,2.82,4.97,10.17,3.08,18.77c-3.47,15.73-21.53,21.09-23.69,21.69c-13.54,3.79-24.97-1.78-28-3.38
		c-1.59,1.55-10.28,9.76-23.84,9.54c-12.88-0.21-21.05-7.86-22.77-9.54c-2.77,1.08-13.81,5.02-25.69,0
		c-2.42-1.02-15.71-6.64-17.69-19.23c-1.2-7.68,2.45-13.78,3.54-15.54C80.92,105.51,91.24,103.54,92.99,103.23z"/>
	<g>
		<g>
			<rect x="139.45" y="94.05" class="st11" width="11.72" height="46.88"/>
			<rect x="166.99" y="94.35" class="st11" width="12.01" height="46.58"/>
			<polygon class="st11" points="155.01,111.91 154.68,122.36 166.99,122.36 179.01,117.64 166.99,111.91 			"/>
			<path class="st11" d="M136.12,94.35v8.91l-10.83,0.29c-3.66,0.1-6.66,3-6.76,6.64c0,0.03,0,0.06,0,0.09c0,0.03,0,0.07,0,0.1
				c-0.07,4,3.24,7.26,7.27,7.26h10.33l-16.16,23.29H106.7l12.3-15.87c-1.58-0.36-4.41-1.24-6.91-3.6
				c-4.31-4.07-5.26-10.29-3.98-15.24c1.27-4.93,4.8-8.76,8.68-10.59c2.82-1.33,5.53-1.42,10.96-1.58
				C131.2,93.94,134.08,94.14,136.12,94.35z"/>
		</g>
		<polygon class="st11" points="105.16,140.24 106.7,140.93 107.49,139.99 		"/>
		<polygon class="st11" points="134.59,116.95 136.06,117.64 133.9,117.63 		"/>
		<polygon class="st11" points="134.59,93.66 136.12,94.35 134.27,94.35 		"/>
		<polygon class="st11" points="139.45,140.93 137.92,140.24 139.98,140.12 		"/>
		<polygon class="st11" points="153.14,121.67 154.68,122.36 154.92,121.36 		"/>
		<polygon class="st11" points="149.63,93.36 151.17,94.05 149.24,94.24 		"/>
		<polygon class="st11" points="177.47,93.66 179.01,94.35 177.07,94.5 		"/>
		<polygon class="st11" points="165.45,140.24 166.99,140.93 167,140.02 		"/>
		<g>
			<rect x="137.92" y="93.36" class="st12" width="11.72" height="46.88"/>
			<rect x="165.45" y="93.66" class="st12" width="12.01" height="46.58"/>
			<polygon class="st12" points="153.47,111.22 153.14,121.67 165.45,121.67 177.47,116.95 165.45,111.22 			"/>
			<path class="st12" d="M134.59,93.66v8.91l-10.83,0.29c-3.66,0.1-6.66,3-6.76,6.64c0,0.03,0,0.06,0,0.09c0,0.03,0,0.07,0,0.1
				c-0.07,4,3.24,7.26,7.27,7.26h10.33l-16.16,23.29h-13.26l12.3-15.87c-1.58-0.36-4.41-1.24-6.91-3.6
				c-4.31-4.07-5.26-10.29-3.98-15.24c1.27-4.93,4.8-8.76,8.68-10.59c2.82-1.33,5.53-1.42,10.96-1.58
				C129.66,93.25,132.54,93.45,134.59,93.66z"/>
		</g>
	</g>
</g>
</svg>
